<svg width="125" height="132" viewBox="0 0 125 132" fill="none" xmlns="http://www.w3.org/2000/svg">
<path d="M35 82L34.5908 83.4431L35 82ZM2 33.5L0.508687 33.3388L2 33.5ZM88 57.5L86.8611 58.4762L88 57.5ZM114.078 131.683C114.731 132.192 115.673 132.076 116.183 131.422L124.485 120.777C124.994 120.123 124.877 119.181 124.224 118.671C123.571 118.162 122.628 118.279 122.119 118.932L114.74 128.395L105.277 121.015C104.623 120.506 103.681 120.623 103.171 121.276C102.662 121.929 102.779 122.872 103.432 123.381L114.078 131.683ZM73.5 0.5C72.0019 0.423791 72.0019 0.423863 72.0019 0.424281C72.0019 0.424882 72.0018 0.425645 72.0018 0.426845C72.0016 0.429244 72.0014 0.43302 72.0012 0.438162C72.0006 0.448445 71.9998 0.464192 71.9987 0.485309C71.9964 0.527545 71.9929 0.591265 71.9881 0.675737C71.9785 0.844685 71.9636 1.09663 71.9427 1.42573C71.9009 2.08395 71.8351 3.05066 71.7393 4.2791C71.5476 6.73625 71.2359 10.239 70.7565 14.4134C69.7969 22.7689 68.1685 33.7861 65.4943 44.4869C62.8113 55.2231 59.1124 65.4842 54.0869 72.4376C51.5824 75.903 48.806 78.4656 45.7429 79.8955C42.7142 81.3094 39.3093 81.6626 35.4091 80.5569L34.5908 83.4431C39.1571 84.7377 43.305 84.3444 47.0119 82.6139C50.6843 80.8995 53.826 77.9201 56.5184 74.1949C61.8865 66.7672 65.6961 56.0532 68.4048 45.2142C71.1224 34.3398 72.7692 23.1818 73.7369 14.7557C74.2211 10.5394 74.5361 6.99988 74.7302 4.51243C74.8272 3.26856 74.894 2.28739 74.9367 1.61581C74.958 1.28 74.9733 1.02156 74.9832 0.846354C74.9882 0.758747 74.9919 0.691944 74.9943 0.646677C74.9956 0.624043 74.9965 0.606793 74.9971 0.595018C74.9974 0.58913 74.9976 0.584611 74.9978 0.581473C74.9979 0.579904 74.9979 0.578587 74.998 0.577802C74.998 0.576832 74.9981 0.576209 73.5 0.5ZM35.4091 80.5569C14.0579 74.5034 1.10915 55.6955 3.49131 33.6612L0.508687 33.3388C-2.03391 56.8571 11.8615 76.9989 34.5908 83.4431L35.4091 80.5569ZM3.49131 33.6612C3.93786 29.5308 5.13471 26.4374 6.84883 24.1839C8.55451 21.9414 10.8395 20.4412 13.6268 19.5948C19.2761 17.8794 26.9826 18.8599 35.6891 22.0028C53.0462 28.2685 73.3999 42.7714 86.8611 58.4762L89.1389 56.5238C75.3814 40.4734 54.609 25.6432 36.7077 19.181C27.7851 15.9601 19.3293 14.728 12.7551 16.7243C9.43071 17.7338 6.58872 19.5705 4.46108 22.3676C2.34188 25.1537 0.999093 28.8027 0.508687 33.3388L3.49131 33.6612ZM86.8611 58.4762C97.1351 70.4625 103.816 88.4416 107.927 103.581C109.976 111.123 111.373 117.908 112.258 122.806C112.701 125.254 113.015 127.229 113.218 128.59C113.319 129.27 113.393 129.796 113.441 130.151C113.465 130.329 113.483 130.463 113.495 130.553C113.5 130.598 113.505 130.631 113.507 130.653C113.509 130.664 113.51 130.672 113.511 130.677C113.511 130.68 113.511 130.682 113.511 130.683C113.511 130.684 113.511 130.684 113.511 130.684C113.511 130.684 113.511 130.684 115 130.5C116.489 130.316 116.489 130.315 116.489 130.315C116.488 130.314 116.488 130.313 116.488 130.313C116.488 130.311 116.488 130.308 116.487 130.305C116.486 130.298 116.485 130.289 116.484 130.276C116.481 130.251 116.476 130.215 116.47 130.167C116.457 130.072 116.439 129.931 116.414 129.747C116.364 129.38 116.288 128.841 116.185 128.147C115.978 126.759 115.659 124.754 115.21 122.272C114.314 117.311 112.899 110.439 110.823 102.794C106.684 87.5584 99.8649 69.0375 89.1389 56.5238L86.8611 58.4762Z" fill="white"/>
</svg>
